<?xml version="1.0" encoding="UTF-8" standalone="no"?>
<!-- Created with Inkscape (http://www.inkscape.org/) -->

<svg
   xmlns:dc="http://purl.org/dc/elements/1.1/"
   xmlns:cc="http://creativecommons.org/ns#"
   xmlns:rdf="http://www.w3.org/1999/02/22-rdf-syntax-ns#"
   xmlns:svg="http://www.w3.org/2000/svg"
   xmlns="http://www.w3.org/2000/svg"
   xmlns:sodipodi="http://sodipodi.sourceforge.net/DTD/sodipodi-0.dtd"
   xmlns:inkscape="http://www.inkscape.org/namespaces/inkscape"
   width="79.619568mm"
   height="84.238205mm"
   viewBox="0 0 282.11658 298.48183"
   id="svg2"
   version="1.1"
   inkscape:version="0.91 r13725"
   sodipodi:docname="frog_sad.svg">
  <defs
     id="defs4" />
  <sodipodi:namedview
     id="base"
     pagecolor="#ffffff"
     bordercolor="#666666"
     borderopacity="1.0"
     inkscape:pageopacity="0.0"
     inkscape:pageshadow="2"
     inkscape:zoom="0.49773689"
     inkscape:cx="215.58548"
     inkscape:cy="104.86136"
     inkscape:document-units="px"
     inkscape:current-layer="layer1"
     showgrid="false"
     inkscape:snap-page="false"
     showborder="true"
     inkscape:window-width="1366"
     inkscape:window-height="705"
     inkscape:window-x="-8"
     inkscape:window-y="-8"
     inkscape:window-maximized="1"
     inkscape:snap-grids="true"
     showguides="true"
     fit-margin-top="0"
     fit-margin-left="0"
     fit-margin-right="0"
     fit-margin-bottom="0">
    <inkscape:grid
       type="xygrid"
       id="grid3338"
       originx="660.00001"
       originy="-707.40003" />
  </sodipodi:namedview>
  <metadata
     id="metadata7">
    <rdf:RDF>
      <cc:Work
         rdf:about="">
        <dc:format>image/svg+xml</dc:format>
        <dc:type
           rdf:resource="http://purl.org/dc/dcmitype/StillImage" />
        <dc:title></dc:title>
      </cc:Work>
    </rdf:RDF>
  </metadata>
  <g
     inkscape:label="Layer 1"
     inkscape:groupmode="layer"
     id="layer1"
     transform="translate(660,-46.480295)">
    <ellipse
       style="fill:#ffffff;fill-opacity:1;stroke:#000000;stroke-width:3;stroke-miterlimit:4;stroke-dasharray:none;stroke-opacity:1"
       id="path4412"
       cx="-516.38251"
       cy="134.37129"
       rx="90"
       ry="60" />
    <ellipse
       style="fill:#ffffff;fill-opacity:1;stroke:#000000;stroke-width:3;stroke-miterlimit:4;stroke-dasharray:none;stroke-opacity:1"
       id="path4414"
       cx="-564.25311"
       cy="4.2214932"
       rx="20"
       ry="30"
       transform="matrix(0.99085221,-0.1349515,0.1349515,0.99085221,0,0)" />
    <path
       style="fill:#005500;fill-opacity:1;stroke:#000000;stroke-width:4.2426405;stroke-miterlimit:4;stroke-dasharray:none;stroke-opacity:1"
       d="m -414.41467,195.81528 c -2.68403,-0.0835 -6.11942,2.16382 -10.26562,6.77539 -17.44253,19.4003 -34.61719,73.15155 -33.38671,104.48828 0.39398,10.03347 1.06535,13.32792 3.19336,15.67773 1.48173,1.63617 3.34818,2.97461 4.14843,2.97461 3.24036,0 14.76957,-14.1485 20.48633,-25.14062 12.22056,-23.49756 22.97881,-63.64618 22.79491,-85.06445 -0.11123,-12.95544 -2.49732,-19.57179 -6.9707,-19.71094 z"
       id="path4435"
       inkscape:connector-curvature="0" />
    <path
       style="fill:#005500;fill-opacity:1;stroke:#000000;stroke-width:4.2426405;stroke-miterlimit:4;stroke-dasharray:none;stroke-opacity:1"
       d="m -619.7712,198.638 c -0.23448,-0.008 -0.46083,0.008 -0.68164,0.0488 -10.87935,2.03097 -10.01223,42.78811 1.73437,81.51172 5.12467,16.89386 15.07615,37.16866 21.6211,44.04883 2.99584,3.14928 6.48663,5.72656 7.75586,5.72656 11.2657,0 10.54582,-41.07982 -1.41211,-80.60937 -8.10173,-26.78204 -21.7486,-50.47137 -29.01758,-50.72656 z"
       id="path4433"
       inkscape:connector-curvature="0" />
    <path
       style="fill:#005500;fill-opacity:1;stroke:#000000;stroke-width:1.98689604;stroke-miterlimit:4;stroke-dasharray:none;stroke-opacity:1"
       id="path4473-7"
       sodipodi:type="arc"
       sodipodi:cx="-422.96533"
       sodipodi:cy="-334.71127"
       sodipodi:rx="42.079369"
       sodipodi:ry="25.017841"
       sodipodi:start="0"
       sodipodi:end="3.1470032"
       sodipodi:open="true"
       d="m -380.88596,-334.71127 a 42.079369,25.017841 0 0 1 -21.10545,21.68861 42.079369,25.017841 0 0 1 -42.14492,-0.0678 42.079369,25.017841 0 0 1 -20.90775,-21.75618"
       transform="scale(1,-1)" />
    <path
       style="fill:#005500;fill-opacity:1;stroke:#000000;stroke-width:1.98689604;stroke-miterlimit:4;stroke-dasharray:none;stroke-opacity:1"
       id="path4473-7-3"
       sodipodi:type="arc"
       sodipodi:cx="-609.25378"
       sodipodi:cy="-334.71841"
       sodipodi:rx="42.079369"
       sodipodi:ry="25.017841"
       sodipodi:start="0"
       sodipodi:end="3.1470032"
       sodipodi:open="true"
       d="m -567.17442,-334.71841 a 42.079369,25.017841 0 0 1 -21.10544,21.68861 42.079369,25.017841 0 0 1 -42.14492,-0.0678 42.079369,25.017841 0 0 1 -20.90776,-21.75618"
       transform="scale(1,-1)" />
    <path
       style="fill:#00aa00;fill-opacity:1;stroke:#000000;stroke-width:2.71249962;stroke-miterlimit:4;stroke-dasharray:none;stroke-opacity:1"
       id="path4449"
       sodipodi:type="arc"
       sodipodi:cx="519.61755"
       sodipodi:cy="-330.20074"
       sodipodi:rx="80.100525"
       sodipodi:ry="187.79297"
       sodipodi:start="0"
       sodipodi:end="3.1470043"
       d="m 599.71808,-330.20074 a 80.100525,187.79297 0 0 1 -40.17546,162.80259 80.100525,187.79297 0 0 1 -80.22533,-0.50893 80.100525,187.79297 0 0 1 -39.79909,-163.30993"
       sodipodi:open="true"
       transform="matrix(-0.99997536,0.00702057,-0.01055781,-0.99994426,0,0)" />
    <path
       style="fill:#00aa00;fill-opacity:1;stroke:#000000;stroke-width:4.2426405;stroke-miterlimit:4;stroke-dasharray:none;stroke-opacity:1"
       d="m -530.52846,191.19427 c -30.48072,-2.8376 -58.97538,-18.9112 -69.28373,-39.08237 -2.77713,-5.43422 -3.41918,-8.82021 -3.4144,-18.00645 0.005,-9.87761 0.53605,-12.27219 4.18263,-18.8647 3.83952,-6.94136 17.75597,-21.440381 20.57889,-21.440381 0.66272,0 1.61,1.276226 2.10507,2.836058 1.33297,4.199823 7.55207,11.117763 12.11662,13.478183 5.69756,2.94633 11.48275,2.56571 16.89374,-1.11145 6.12649,-4.1634 9.86838,-11.664575 10.89099,-21.832592 0.45465,-4.520693 1.52644,-8.686994 2.38175,-9.258446 1.89179,-1.263956 27.77412,-1.392552 35.14267,-0.174606 4.59536,0.759565 5.3033,1.383973 5.3033,4.677502 0,2.090506 0.96147,7.038511 2.13658,10.995567 5.57196,18.762815 24.47511,21.340415 35.58633,4.852482 l 3.14198,-4.662385 9.08804,9.088028 c 11.45791,11.45792 15.72034,21.38479 14.72216,34.28676 -0.79698,10.30145 -4.74767,18.50668 -13.32665,27.6783 -18.75226,20.04768 -51.66404,29.94609 -88.24597,26.5405 z"
       id="path4437"
       inkscape:connector-curvature="0" />
    <path
       style="fill:#005500;fill-opacity:1;stroke:#000000;stroke-width:1.86631942;stroke-miterlimit:4;stroke-dasharray:none;stroke-opacity:1"
       id="path4473-7-9"
       sodipodi:type="arc"
       sodipodi:cx="-546.91718"
       sodipodi:cy="-344.78336"
       sodipodi:rx="30.147579"
       sodipodi:ry="30.809759"
       sodipodi:start="0"
       sodipodi:end="3.1470032"
       sodipodi:open="true"
       d="m -516.7696,-344.78336 a 30.147579,30.809759 0 0 1 -15.1209,26.70978 30.147579,30.809759 0 0 1 -30.19454,-0.0835 30.147579,30.809759 0 0 1 -14.97927,-26.79299"
       transform="scale(1,-1)" />
    <path
       style="fill:#005500;fill-opacity:1;stroke:#000000;stroke-width:1.86631942;stroke-miterlimit:4;stroke-dasharray:none;stroke-opacity:1"
       id="path4473-7-9-5"
       sodipodi:type="arc"
       sodipodi:cx="-484.51221"
       sodipodi:cy="-344.7905"
       sodipodi:rx="30.147579"
       sodipodi:ry="30.809759"
       sodipodi:start="0"
       sodipodi:end="3.1470032"
       sodipodi:open="true"
       d="m -454.36463,-344.7905 a 30.147579,30.809759 0 0 1 -15.1209,26.70978 30.147579,30.809759 0 0 1 -30.19454,-0.0835 30.147579,30.809759 0 0 1 -14.97927,-26.79299"
       transform="scale(1,-1)" />
    <path
       style="fill:none;fill-rule:evenodd;stroke:#000000;stroke-width:1px;stroke-linecap:butt;stroke-linejoin:miter;stroke-opacity:1"
       d="M -662.00909,112.3622 Z"
       id="path4561"
       inkscape:connector-curvature="0" />
    <path
       style="fill:none;fill-opacity:1;stroke:#000000;stroke-width:2.56732845;stroke-miterlimit:4;stroke-dasharray:none;stroke-opacity:1"
       id="path4563"
       sodipodi:type="arc"
       sodipodi:cx="-515.65753"
       sodipodi:cy="-153.72719"
       sodipodi:rx="40.152168"
       sodipodi:ry="21.887321"
       sodipodi:start="0"
       sodipodi:end="3.1470032"
       sodipodi:open="true"
       d="m -475.50536,-153.72719 a 40.152168,21.887321 0 0 1 -20.13883,18.97468 40.152168,21.887321 0 0 1 -40.21472,-0.0593 40.152168,21.887321 0 0 1 -19.9502,-19.0338"
       transform="scale(1,-1)" />
    <ellipse
       style="fill:#ffffff;fill-opacity:1;stroke:#000000;stroke-width:3;stroke-miterlimit:4;stroke-dasharray:none;stroke-opacity:1"
       id="path4414-9"
       cx="455.71426"
       cy="140.61536"
       rx="20"
       ry="30"
       transform="matrix(-0.99085221,-0.1349515,-0.1349515,0.99085221,0,0)" />
    <ellipse
       style="fill:#000000;fill-opacity:1;stroke:#000000;stroke-width:1.89999998;stroke-miterlimit:4;stroke-dasharray:none;stroke-opacity:1"
       id="path4604"
       cx="-558.80316"
       cy="79.899048"
       rx="10"
       ry="15" />
    <ellipse
       style="fill:#000000;fill-opacity:1;stroke:#000000;stroke-width:1.89999998;stroke-miterlimit:4;stroke-dasharray:none;stroke-opacity:1"
       id="path4604-5"
       cx="-469.96185"
       cy="78.609375"
       rx="10"
       ry="15" />
  </g>
</svg>
