<?xml version="1.0" encoding="UTF-8" standalone="no"?>
<!-- Created with Inkscape (http://www.inkscape.org/) -->

<svg
   xmlns:dc="http://purl.org/dc/elements/1.1/"
   xmlns:cc="http://creativecommons.org/ns#"
   xmlns:rdf="http://www.w3.org/1999/02/22-rdf-syntax-ns#"
   xmlns:svg="http://www.w3.org/2000/svg"
   xmlns="http://www.w3.org/2000/svg"
   xmlns:sodipodi="http://sodipodi.sourceforge.net/DTD/sodipodi-0.dtd"
   xmlns:inkscape="http://www.inkscape.org/namespaces/inkscape"
   width="76.886963mm"
   height="121.35087mm"
   viewBox="0 0 272.43413 429.98339"
   id="svg2"
   version="1.1"
   inkscape:version="0.91 r13725"
   sodipodi:docname="frog_tongue.svg">
  <defs
     id="defs4" />
  <sodipodi:namedview
     id="base"
     pagecolor="#ffffff"
     bordercolor="#666666"
     borderopacity="1.0"
     inkscape:pageopacity="0.0"
     inkscape:pageshadow="2"
     inkscape:zoom="0.70390626"
     inkscape:cx="-55.029094"
     inkscape:cy="265.33241"
     inkscape:document-units="px"
     inkscape:current-layer="layer1"
     showgrid="false"
     inkscape:snap-page="false"
     showborder="true"
     inkscape:window-width="1366"
     inkscape:window-height="705"
     inkscape:window-x="-8"
     inkscape:window-y="-8"
     inkscape:window-maximized="1"
     inkscape:snap-grids="true"
     showguides="true"
     fit-margin-top="0"
     fit-margin-left="0"
     fit-margin-right="0"
     fit-margin-bottom="0">
    <inkscape:grid
       type="xygrid"
       id="grid3338"
       originx="635.95525"
       originy="-611.38473" />
  </sodipodi:namedview>
  <metadata
     id="metadata7">
    <rdf:RDF>
      <cc:Work
         rdf:about="">
        <dc:format>image/svg+xml</dc:format>
        <dc:type
           rdf:resource="http://purl.org/dc/dcmitype/StillImage" />
        <dc:title />
      </cc:Work>
    </rdf:RDF>
  </metadata>
  <g
     inkscape:label="Layer 1"
     inkscape:groupmode="layer"
     id="layer1"
     transform="translate(635.95521,-10.994055)">
    <ellipse
       style="fill:#ffffff;fill-opacity:1;stroke:#000000;stroke-width:3;stroke-miterlimit:4;stroke-dasharray:none;stroke-opacity:1"
       id="path4412"
       cx="-497.1698"
       cy="230.38663"
       rx="90"
       ry="60" />
    <ellipse
       style="fill:#ffffff;fill-opacity:1;stroke:#000000;stroke-width:3;stroke-miterlimit:4;stroke-dasharray:none;stroke-opacity:1"
       id="path4414"
       cx="-558.17352"
       cy="101.95129"
       rx="20"
       ry="30"
       transform="matrix(0.99085221,-0.1349515,0.1349515,0.99085221,0,0)" />
    <path
       style="fill:#005500;fill-opacity:1;stroke:#000000;stroke-width:4.2426405;stroke-miterlimit:4;stroke-dasharray:none;stroke-opacity:1"
       d="m -395.20194,291.8306 c -2.68403,-0.0835 -6.11942,2.16382 -10.26562,6.77539 -17.44254,19.4003 -34.6172,73.15155 -33.38672,104.48828 0.39398,10.03347 1.06535,13.32792 3.19336,15.67773 1.48173,1.63617 3.34818,2.97461 4.14843,2.97461 3.24036,0 14.76957,-14.1485 20.48633,-25.14062 12.22057,-23.49756 22.97882,-63.64618 22.79492,-85.06445 -0.11123,-12.95544 -2.49732,-19.57179 -6.9707,-19.71094 z"
       id="path4435"
       inkscape:connector-curvature="0" />
    <path
       style="fill:#005500;fill-opacity:1;stroke:#000000;stroke-width:4.2426405;stroke-miterlimit:4;stroke-dasharray:none;stroke-opacity:1"
       d="m -600.55848,294.65332 c -0.23448,-0.008 -0.46083,0.008 -0.68164,0.0488 -10.87934,2.03097 -10.01222,42.78811 1.73438,81.51172 5.12466,16.89386 15.07614,37.16866 21.62109,44.04883 2.99584,3.14928 6.48663,5.72656 7.75586,5.72656 11.2657,0 10.54583,-41.07982 -1.41211,-80.60937 -8.10173,-26.78204 -21.7486,-50.47137 -29.01758,-50.72656 z"
       id="path4433"
       inkscape:connector-curvature="0" />
    <path
       style="fill:#005500;fill-opacity:1;stroke:#000000;stroke-width:1.98689604;stroke-miterlimit:4;stroke-dasharray:none;stroke-opacity:1"
       id="path4473-7"
       sodipodi:type="arc"
       sodipodi:cx="-403.75262"
       sodipodi:cy="-430.72659"
       sodipodi:rx="42.079369"
       sodipodi:ry="25.017841"
       sodipodi:start="0"
       sodipodi:end="3.1470032"
       sodipodi:open="true"
       d="m -361.67326,-430.72659 a 42.079369,25.017841 0 0 1 -21.10544,21.68861 42.079369,25.017841 0 0 1 -42.14492,-0.0678 42.079369,25.017841 0 0 1 -20.90776,-21.75618"
       transform="scale(1,-1)" />
    <path
       style="fill:#005500;fill-opacity:1;stroke:#000000;stroke-width:1.98689604;stroke-miterlimit:4;stroke-dasharray:none;stroke-opacity:1"
       id="path4473-7-3"
       sodipodi:type="arc"
       sodipodi:cx="-590.04108"
       sodipodi:cy="-430.73373"
       sodipodi:rx="42.079369"
       sodipodi:ry="25.017841"
       sodipodi:start="0"
       sodipodi:end="3.1470032"
       sodipodi:open="true"
       d="m -547.96171,-430.73373 a 42.079369,25.017841 0 0 1 -21.10544,21.68861 42.079369,25.017841 0 0 1 -42.14492,-0.0678 42.079369,25.017841 0 0 1 -20.90776,-21.75618"
       transform="scale(1,-1)" />
    <path
       style="fill:#00aa00;fill-opacity:1;stroke:#000000;stroke-width:2.71249962;stroke-miterlimit:4;stroke-dasharray:none;stroke-opacity:1"
       id="path4449"
       sodipodi:type="arc"
       sodipodi:cx="501.41953"
       sodipodi:cy="-426.34921"
       sodipodi:rx="80.100525"
       sodipodi:ry="187.79297"
       sodipodi:start="0"
       sodipodi:end="3.1470043"
       d="m 581.52005,-426.34921 a 80.100525,187.79297 0 0 1 -40.17546,162.80259 80.100525,187.79297 0 0 1 -80.22533,-0.50893 80.100525,187.79297 0 0 1 -39.79909,-163.30993"
       sodipodi:open="true"
       transform="matrix(-0.99997536,0.00702057,-0.01055781,-0.99994426,0,0)" />
    <path
       style="fill:#00aa00;fill-opacity:1;stroke:#000000;stroke-width:4.2426405;stroke-miterlimit:4;stroke-dasharray:none;stroke-opacity:1"
       d="m -511.31574,287.20959 c -30.48072,-2.8376 -58.97538,-18.9112 -69.28373,-39.08237 -2.77712,-5.43422 -3.41918,-8.82021 -3.4144,-18.00645 0.005,-9.87761 0.53606,-12.27219 4.18263,-18.8647 3.83953,-6.94136 17.75597,-21.44038 20.57889,-21.44038 0.66272,0 1.61,1.27623 2.10508,2.83606 1.33297,4.19982 7.55206,11.11776 12.11661,13.47818 5.69756,2.94633 11.48276,2.56571 16.89374,-1.11145 6.12649,-4.1634 9.86838,-11.66457 10.89099,-21.83259 0.45465,-4.52069 1.52644,-8.68699 2.38175,-9.25844 1.89179,-1.26396 27.77412,-1.39256 35.14268,-0.17461 4.59535,0.75956 5.3033,1.38397 5.3033,4.6775 0,2.09051 0.96146,7.03851 2.13658,10.99557 5.57196,18.76281 24.4751,21.34041 35.58632,4.85248 l 3.14199,-4.66238 9.08803,9.08802 c 11.45791,11.45792 15.72034,21.38479 14.72216,34.28676 -0.79698,10.30145 -4.74767,18.50668 -13.32664,27.6783 -18.75226,20.04768 -51.66405,29.94609 -88.24598,26.5405 z"
       id="path4437"
       inkscape:connector-curvature="0" />
    <path
       style="fill:#005500;fill-opacity:1;stroke:#000000;stroke-width:1.86631942;stroke-miterlimit:4;stroke-dasharray:none;stroke-opacity:1"
       id="path4473-7-9"
       sodipodi:type="arc"
       sodipodi:cx="-527.70447"
       sodipodi:cy="-440.79868"
       sodipodi:rx="30.147579"
       sodipodi:ry="30.809759"
       sodipodi:start="0"
       sodipodi:end="3.1470032"
       sodipodi:open="true"
       d="m -497.55689,-440.79868 a 30.147579,30.809759 0 0 1 -15.1209,26.70978 30.147579,30.809759 0 0 1 -30.19454,-0.0835 30.147579,30.809759 0 0 1 -14.97928,-26.79299"
       transform="scale(1,-1)" />
    <path
       style="fill:#005500;fill-opacity:1;stroke:#000000;stroke-width:1.86631942;stroke-miterlimit:4;stroke-dasharray:none;stroke-opacity:1"
       id="path4473-7-9-5"
       sodipodi:type="arc"
       sodipodi:cx="-465.29947"
       sodipodi:cy="-440.80582"
       sodipodi:rx="30.147579"
       sodipodi:ry="30.809759"
       sodipodi:start="0"
       sodipodi:end="3.1470032"
       sodipodi:open="true"
       d="m -435.15189,-440.80582 a 30.147579,30.809759 0 0 1 -15.1209,26.70978 30.147579,30.809759 0 0 1 -30.19454,-0.0835 30.147579,30.809759 0 0 1 -14.97928,-26.79299"
       transform="scale(1,-1)" />
    <path
       style="fill:none;fill-rule:evenodd;stroke:#000000;stroke-width:1px;stroke-linecap:butt;stroke-linejoin:miter;stroke-opacity:1"
       d="M -660,112.3622 Z"
       id="path4561"
       inkscape:connector-curvature="0" />
    <path
       style="fill:none;fill-opacity:1;stroke:#000000;stroke-width:2.37252808;stroke-miterlimit:4;stroke-dasharray:none;stroke-opacity:1"
       id="path4563"
       sodipodi:type="arc"
       sodipodi:cx="-497.95166"
       sodipodi:cy="239.58652"
       sodipodi:rx="24.182541"
       sodipodi:ry="9.5971527"
       sodipodi:start="0"
       sodipodi:end="3.1470032"
       sodipodi:open="true"
       d="m -473.76912,239.58652 a 24.182541,9.5971527 0 0 1 -12.12906,8.32002 24.182541,9.5971527 0 0 1 -24.22021,-0.026 24.182541,9.5971527 0 0 1 -12.01546,-8.34594" />
    <ellipse
       style="fill:#ffffff;fill-opacity:1;stroke:#000000;stroke-width:3;stroke-miterlimit:4;stroke-dasharray:none;stroke-opacity:1"
       id="path4414-9"
       cx="423.71982"
       cy="233.15958"
       rx="20"
       ry="30"
       transform="matrix(-0.99085221,-0.1349515,-0.1349515,0.99085221,0,0)" />
    <ellipse
       style="fill:#000000;fill-opacity:1;stroke:#000000;stroke-width:1.89999998;stroke-miterlimit:4;stroke-dasharray:none;stroke-opacity:1"
       id="path4604"
       cx="-541.09723"
       cy="160.84619"
       rx="10"
       ry="15" />
    <ellipse
       style="fill:#000000;fill-opacity:1;stroke:#000000;stroke-width:1.89999998;stroke-miterlimit:4;stroke-dasharray:none;stroke-opacity:1"
       id="path4604-5"
       cx="-450.74915"
       cy="158.55197"
       rx="10"
       ry="15" />
    <path
       style="fill:#ff5555;fill-opacity:1;stroke:#000000;stroke-width:2.69507098;stroke-miterlimit:4;stroke-dasharray:none;stroke-opacity:1"
       id="path4627"
       sodipodi:type="arc"
       sodipodi:cx="-497.01703"
       sodipodi:cy="-247.52658"
       sodipodi:rx="10.553519"
       sodipodi:ry="235.18488"
       sodipodi:start="0"
       sodipodi:end="3.1470032"
       sodipodi:open="true"
       d="m -486.46351,-247.52658 a 10.553519,235.18488 0 0 1 -5.29325,203.887824 10.553519,235.18488 0 0 1 -10.56996,-0.637232 10.553519,235.18488 0 0 1 -5.24367,-204.523062"
       transform="scale(1,-1)" />
    <path
       style="fill:none;fill-rule:evenodd;stroke:#000000;stroke-width:1.847;stroke-linecap:butt;stroke-linejoin:miter;stroke-miterlimit:4;stroke-dasharray:none;stroke-opacity:1"
       d="m -497.22989,244.70953 0.4547,-195.813781 0,0 0,0"
       id="path4629"
       inkscape:connector-curvature="0" />
  </g>
</svg>
