<?xml version="1.0" encoding="UTF-8" standalone="no"?>
<!-- Created with Inkscape (http://www.inkscape.org/) -->

<svg
   xmlns:dc="http://purl.org/dc/elements/1.1/"
   xmlns:cc="http://creativecommons.org/ns#"
   xmlns:rdf="http://www.w3.org/1999/02/22-rdf-syntax-ns#"
   xmlns:svg="http://www.w3.org/2000/svg"
   xmlns="http://www.w3.org/2000/svg"
   xmlns:sodipodi="http://sodipodi.sourceforge.net/DTD/sodipodi-0.dtd"
   xmlns:inkscape="http://www.inkscape.org/namespaces/inkscape"
   width="177.54541mm"
   height="28.780359mm"
   viewBox="0 0 629.09791 101.97765"
   id="svg2"
   version="1.1"
   inkscape:version="0.91 r13725"
   sodipodi:docname="many_flies.svg">
  <defs
     id="defs4" />
  <sodipodi:namedview
     id="base"
     pagecolor="#ffffff"
     bordercolor="#666666"
     borderopacity="1.0"
     inkscape:pageopacity="0.0"
     inkscape:pageshadow="2"
     inkscape:zoom="0.25"
     inkscape:cx="238.10119"
     inkscape:cy="240.21809"
     inkscape:document-units="px"
     inkscape:current-layer="layer1"
     showgrid="false"
     inkscape:snap-page="false"
     showborder="true"
     inkscape:window-width="1366"
     inkscape:window-height="705"
     inkscape:window-x="-8"
     inkscape:window-y="-8"
     inkscape:window-maximized="1"
     inkscape:snap-grids="true"
     showguides="true"
     fit-margin-top="0"
     fit-margin-left="0"
     fit-margin-right="0"
     fit-margin-bottom="0">
    <inkscape:grid
       type="xygrid"
       id="grid3338"
       originx="-46.095685"
       originy="-7.2156422" />
  </sodipodi:namedview>
  <metadata
     id="metadata7">
    <rdf:RDF>
      <cc:Work
         rdf:about="">
        <dc:format>image/svg+xml</dc:format>
        <dc:type
           rdf:resource="http://purl.org/dc/dcmitype/StillImage" />
        <dc:title></dc:title>
      </cc:Work>
    </rdf:RDF>
  </metadata>
  <g
     inkscape:label="Layer 1"
     inkscape:groupmode="layer"
     id="layer1"
     transform="translate(-46.095684,-943.16891)">
    <ellipse
       style="fill:#000000;fill-rule:evenodd;stroke:#000000;stroke-width:0.97466683px;stroke-linecap:butt;stroke-linejoin:miter;stroke-opacity:1"
       id="path3358"
       cx="148.19691"
       cy="1012.7213"
       rx="18.334835"
       ry="10.362518" />
    <path
       style="fill:#ffffff;fill-opacity:1;stroke:#000000;stroke-width:1.8970592;stroke-miterlimit:4;stroke-dasharray:none;stroke-opacity:1"
       id="path4189"
       sodipodi:type="arc"
       sodipodi:cx="1028.4254"
       sodipodi:cy="-149.39804"
       sodipodi:rx="12.477895"
       sodipodi:ry="6.4092603"
       sodipodi:start="0"
       sodipodi:end="6.1709083"
       sodipodi:open="true"
       d="m 1040.9033,-149.39804 a 12.477895,6.4092603 0 0 1 -12.1277,6.40673 12.477895,6.4092603 0 0 1 -12.8084,-6.04711 12.477895,6.4092603 0 0 1 11.4087,-6.74617 12.477895,6.4092603 0 0 1 13.4488,5.66845"
       transform="matrix(0,1,-1,0,0,0)" />
    <path
       style="fill:#ffffff;fill-opacity:1;stroke:#000000;stroke-width:1.94648993;stroke-miterlimit:4;stroke-dasharray:none;stroke-opacity:1"
       id="path4189-0"
       sodipodi:type="arc"
       sodipodi:cx="997.54224"
       sodipodi:cy="-148.26625"
       sodipodi:rx="13.184418"
       sodipodi:ry="6.3860292"
       sodipodi:start="0"
       sodipodi:end="6.1709083"
       sodipodi:open="true"
       d="m 1010.7267,-148.26625 a 13.184418,6.3860292 0 0 1 -12.81444,6.38351 13.184418,6.3860292 0 0 1 -13.53367,-6.0252 13.184418,6.3860292 0 0 1 12.05473,-6.72171 13.184418,6.3860292 0 0 1 14.21028,5.6479"
       transform="matrix(0,1,-1,0,0,0)" />
    <ellipse
       style="fill:#000000;fill-rule:evenodd;stroke:#000000;stroke-width:0.97466683px;stroke-linecap:butt;stroke-linejoin:miter;stroke-opacity:1"
       id="path3358-9"
       cx="327.42319"
       cy="1015.5521"
       rx="18.334835"
       ry="10.362518" />
    <path
       style="fill:#ffffff;fill-opacity:1;stroke:#000000;stroke-width:1.8970592;stroke-miterlimit:4;stroke-dasharray:none;stroke-opacity:1"
       id="path4189-6"
       sodipodi:type="arc"
       sodipodi:cx="1031.256"
       sodipodi:cy="-328.62433"
       sodipodi:rx="12.477895"
       sodipodi:ry="6.4092603"
       sodipodi:start="0"
       sodipodi:end="6.1709083"
       sodipodi:open="true"
       d="m 1043.7339,-328.62433 a 12.477895,6.4092603 0 0 1 -12.1277,6.40674 12.477895,6.4092603 0 0 1 -12.8085,-6.04712 12.477895,6.4092603 0 0 1 11.4088,-6.74617 12.477895,6.4092603 0 0 1 13.4488,5.66845"
       transform="matrix(0,1,-1,0,0,0)" />
    <path
       style="fill:#ffffff;fill-opacity:1;stroke:#000000;stroke-width:1.94648993;stroke-miterlimit:4;stroke-dasharray:none;stroke-opacity:1"
       id="path4189-0-3"
       sodipodi:type="arc"
       sodipodi:cx="1000.3731"
       sodipodi:cy="-327.49249"
       sodipodi:rx="13.184418"
       sodipodi:ry="6.3860292"
       sodipodi:start="0"
       sodipodi:end="6.1709083"
       sodipodi:open="true"
       d="m 1013.5575,-327.49249 a 13.184418,6.3860292 0 0 1 -12.8144,6.38351 13.184418,6.3860292 0 0 1 -13.53364,-6.0252 13.184418,6.3860292 0 0 1 12.05473,-6.72171 13.184418,6.3860292 0 0 1 14.21031,5.6479"
       transform="matrix(0,1,-1,0,0,0)" />
    <ellipse
       style="fill:#000000;fill-rule:evenodd;stroke:#000000;stroke-width:0.97466683px;stroke-linecap:butt;stroke-linejoin:miter;stroke-opacity:1"
       id="path3358-7"
       cx="241.20746"
       cy="1019.9995"
       rx="18.334835"
       ry="10.362518" />
    <path
       style="fill:#ffffff;fill-opacity:1;stroke:#000000;stroke-width:1.8970592;stroke-miterlimit:4;stroke-dasharray:none;stroke-opacity:1"
       id="path4189-7"
       sodipodi:type="arc"
       sodipodi:cx="1035.7035"
       sodipodi:cy="-242.40858"
       sodipodi:rx="12.477895"
       sodipodi:ry="6.4092603"
       sodipodi:start="0"
       sodipodi:end="6.1709083"
       sodipodi:open="true"
       d="m 1048.1814,-242.40858 a 12.477895,6.4092603 0 0 1 -12.1277,6.40673 12.477895,6.4092603 0 0 1 -12.8084,-6.04712 12.477895,6.4092603 0 0 1 11.4087,-6.74616 12.477895,6.4092603 0 0 1 13.4488,5.66844"
       transform="matrix(0,1,-1,0,0,0)" />
    <path
       style="fill:#ffffff;fill-opacity:1;stroke:#000000;stroke-width:1.94648993;stroke-miterlimit:4;stroke-dasharray:none;stroke-opacity:1"
       id="path4189-0-1"
       sodipodi:type="arc"
       sodipodi:cx="1004.8204"
       sodipodi:cy="-241.27676"
       sodipodi:rx="13.184418"
       sodipodi:ry="6.3860292"
       sodipodi:start="0"
       sodipodi:end="6.1709083"
       sodipodi:open="true"
       d="m 1018.0048,-241.27676 a 13.184418,6.3860292 0 0 1 -12.8144,6.38351 13.184418,6.3860292 0 0 1 -13.53367,-6.0252 13.184418,6.3860292 0 0 1 12.05477,-6.72172 13.184418,6.3860292 0 0 1 14.2103,5.64791"
       transform="matrix(0,1,-1,0,0,0)" />
    <ellipse
       style="fill:#000000;fill-rule:evenodd;stroke:#000000;stroke-width:0.97466683px;stroke-linecap:butt;stroke-linejoin:miter;stroke-opacity:1"
       id="path3358-0"
       cx="284.31531"
       cy="978.75134"
       rx="18.334835"
       ry="10.362518" />
    <path
       style="fill:#ffffff;fill-opacity:1;stroke:#000000;stroke-width:1.8970592;stroke-miterlimit:4;stroke-dasharray:none;stroke-opacity:1"
       id="path4189-73"
       sodipodi:type="arc"
       sodipodi:cx="994.45538"
       sodipodi:cy="-285.51645"
       sodipodi:rx="12.477895"
       sodipodi:ry="6.4092603"
       sodipodi:start="0"
       sodipodi:end="6.1709083"
       sodipodi:open="true"
       d="m 1006.9333,-285.51645 a 12.477895,6.4092603 0 0 1 -12.12772,6.40674 12.477895,6.4092603 0 0 1 -12.80843,-6.04712 12.477895,6.4092603 0 0 1 11.40874,-6.74617 12.477895,6.4092603 0 0 1 13.44881,5.66845"
       transform="matrix(0,1,-1,0,0,0)" />
    <path
       style="fill:#ffffff;fill-opacity:1;stroke:#000000;stroke-width:1.94648993;stroke-miterlimit:4;stroke-dasharray:none;stroke-opacity:1"
       id="path4189-0-8"
       sodipodi:type="arc"
       sodipodi:cx="963.57233"
       sodipodi:cy="-284.38461"
       sodipodi:rx="13.184418"
       sodipodi:ry="6.3860292"
       sodipodi:start="0"
       sodipodi:end="6.1709083"
       sodipodi:open="true"
       d="m 976.75674,-284.38461 a 13.184418,6.3860292 0 0 1 -12.81439,6.38351 13.184418,6.3860292 0 0 1 -13.53367,-6.0252 13.184418,6.3860292 0 0 1 12.05473,-6.72171 13.184418,6.3860292 0 0 1 14.21032,5.6479"
       transform="matrix(0,1,-1,0,0,0)" />
    <ellipse
       style="fill:#000000;fill-rule:evenodd;stroke:#000000;stroke-width:0.97466683px;stroke-linecap:butt;stroke-linejoin:miter;stroke-opacity:1"
       id="path3358-3"
       cx="196.31349"
       cy="981.38098"
       rx="18.334835"
       ry="10.362518" />
    <path
       style="fill:#ffffff;fill-opacity:1;stroke:#000000;stroke-width:1.8970592;stroke-miterlimit:4;stroke-dasharray:none;stroke-opacity:1"
       id="path4189-1"
       sodipodi:type="arc"
       sodipodi:cx="997.08502"
       sodipodi:cy="-197.51462"
       sodipodi:rx="12.477895"
       sodipodi:ry="6.4092603"
       sodipodi:start="0"
       sodipodi:end="6.1709083"
       sodipodi:open="true"
       d="m 1009.5629,-197.51462 a 12.477895,6.4092603 0 0 1 -12.12768,6.40674 12.477895,6.4092603 0 0 1 -12.80844,-6.04712 12.477895,6.4092603 0 0 1 11.40875,-6.74617 12.477895,6.4092603 0 0 1 13.44887,5.66845"
       transform="matrix(0,1,-1,0,0,0)" />
    <path
       style="fill:#ffffff;fill-opacity:1;stroke:#000000;stroke-width:1.94648993;stroke-miterlimit:4;stroke-dasharray:none;stroke-opacity:1"
       id="path4189-0-5"
       sodipodi:type="arc"
       sodipodi:cx="966.20197"
       sodipodi:cy="-196.3828"
       sodipodi:rx="13.184418"
       sodipodi:ry="6.3860292"
       sodipodi:start="0"
       sodipodi:end="6.1709083"
       sodipodi:open="true"
       d="m 979.38638,-196.3828 a 13.184418,6.3860292 0 0 1 -12.81439,6.38352 13.184418,6.3860292 0 0 1 -13.53367,-6.0252 13.184418,6.3860292 0 0 1 12.05473,-6.72172 13.184418,6.3860292 0 0 1 14.21032,5.6479"
       transform="matrix(0,1,-1,0,0,0)" />
    <ellipse
       style="fill:#000000;fill-rule:evenodd;stroke:#000000;stroke-width:0.97466683px;stroke-linecap:butt;stroke-linejoin:miter;stroke-opacity:1"
       id="path3358-13"
       cx="92.929558"
       cy="984.6142"
       rx="18.334835"
       ry="10.362518" />
    <path
       style="fill:#ffffff;fill-opacity:1;stroke:#000000;stroke-width:1.8970592;stroke-miterlimit:4;stroke-dasharray:none;stroke-opacity:1"
       id="path4189-00"
       sodipodi:type="arc"
       sodipodi:cx="1000.3182"
       sodipodi:cy="-94.130707"
       sodipodi:rx="12.477895"
       sodipodi:ry="6.4092603"
       sodipodi:start="0"
       sodipodi:end="6.1709083"
       sodipodi:open="true"
       d="m 1012.7961,-94.130707 a 12.477895,6.4092603 0 0 1 -12.1277,6.406736 12.477895,6.4092603 0 0 1 -12.80846,-6.047118 12.477895,6.4092603 0 0 1 11.40874,-6.746171 12.477895,6.4092603 0 0 1 13.44882,5.668452"
       transform="matrix(0,1,-1,0,0,0)" />
    <path
       style="fill:#ffffff;fill-opacity:1;stroke:#000000;stroke-width:1.94648993;stroke-miterlimit:4;stroke-dasharray:none;stroke-opacity:1"
       id="path4189-0-20"
       sodipodi:type="arc"
       sodipodi:cx="969.43518"
       sodipodi:cy="-92.998894"
       sodipodi:rx="13.184418"
       sodipodi:ry="6.3860292"
       sodipodi:start="0"
       sodipodi:end="6.1709083"
       sodipodi:open="true"
       d="m 982.6196,-92.998894 a 13.184418,6.3860292 0 0 1 -12.81439,6.383514 13.184418,6.3860292 0 0 1 -13.53368,-6.0252 13.184418,6.3860292 0 0 1 12.05473,-6.721715 13.184418,6.3860292 0 0 1 14.21032,5.647903"
       transform="matrix(0,1,-1,0,0,0)" />
    <ellipse
       style="fill:#000000;fill-rule:evenodd;stroke:#000000;stroke-width:0.97466683px;stroke-linecap:butt;stroke-linejoin:miter;stroke-opacity:1"
       id="path3358-72"
       cx="433.13351"
       cy="1010.494"
       rx="18.334835"
       ry="10.362518" />
    <path
       style="fill:#ffffff;fill-opacity:1;stroke:#000000;stroke-width:1.8970592;stroke-miterlimit:4;stroke-dasharray:none;stroke-opacity:1"
       id="path4189-2"
       sodipodi:type="arc"
       sodipodi:cx="1026.1979"
       sodipodi:cy="-434.33463"
       sodipodi:rx="12.477895"
       sodipodi:ry="6.4092603"
       sodipodi:start="0"
       sodipodi:end="6.1709083"
       sodipodi:open="true"
       d="m 1038.6758,-434.33463 a 12.477895,6.4092603 0 0 1 -12.1277,6.40674 12.477895,6.4092603 0 0 1 -12.8085,-6.04712 12.477895,6.4092603 0 0 1 11.4088,-6.74617 12.477895,6.4092603 0 0 1 13.4488,5.66845"
       transform="matrix(0,1,-1,0,0,0)" />
    <path
       style="fill:#ffffff;fill-opacity:1;stroke:#000000;stroke-width:1.94648993;stroke-miterlimit:4;stroke-dasharray:none;stroke-opacity:1"
       id="path4189-0-55"
       sodipodi:type="arc"
       sodipodi:cx="995.315"
       sodipodi:cy="-433.20285"
       sodipodi:rx="13.184418"
       sodipodi:ry="6.3860292"
       sodipodi:start="0"
       sodipodi:end="6.1709083"
       sodipodi:open="true"
       d="m 1008.4994,-433.20285 a 13.184418,6.3860292 0 0 1 -12.81437,6.38351 13.184418,6.3860292 0 0 1 -13.53368,-6.0252 13.184418,6.3860292 0 0 1 12.05473,-6.72171 13.184418,6.3860292 0 0 1 14.21032,5.6479"
       transform="matrix(0,1,-1,0,0,0)" />
    <ellipse
       style="fill:#000000;fill-rule:evenodd;stroke:#000000;stroke-width:0.97466683px;stroke-linecap:butt;stroke-linejoin:miter;stroke-opacity:1"
       id="path3358-9-5"
       cx="612.35974"
       cy="1013.3249"
       rx="18.334835"
       ry="10.362518" />
    <path
       style="fill:#ffffff;fill-opacity:1;stroke:#000000;stroke-width:1.8970592;stroke-miterlimit:4;stroke-dasharray:none;stroke-opacity:1"
       id="path4189-6-7"
       sodipodi:type="arc"
       sodipodi:cx="1029.0289"
       sodipodi:cy="-613.56085"
       sodipodi:rx="12.477895"
       sodipodi:ry="6.4092603"
       sodipodi:start="0"
       sodipodi:end="6.1709083"
       sodipodi:open="true"
       d="m 1041.5068,-613.56085 a 12.477895,6.4092603 0 0 1 -12.1277,6.40673 12.477895,6.4092603 0 0 1 -12.8084,-6.04711 12.477895,6.4092603 0 0 1 11.4087,-6.74617 12.477895,6.4092603 0 0 1 13.4489,5.66845"
       transform="matrix(0,1,-1,0,0,0)" />
    <path
       style="fill:#ffffff;fill-opacity:1;stroke:#000000;stroke-width:1.94648993;stroke-miterlimit:4;stroke-dasharray:none;stroke-opacity:1"
       id="path4189-0-3-2"
       sodipodi:type="arc"
       sodipodi:cx="998.14581"
       sodipodi:cy="-612.42908"
       sodipodi:rx="13.184418"
       sodipodi:ry="6.3860292"
       sodipodi:start="0"
       sodipodi:end="6.1709083"
       sodipodi:open="true"
       d="m 1011.3302,-612.42908 a 13.184418,6.3860292 0 0 1 -12.81436,6.38352 13.184418,6.3860292 0 0 1 -13.53367,-6.0252 13.184418,6.3860292 0 0 1 12.05472,-6.72172 13.184418,6.3860292 0 0 1 14.21031,5.6479"
       transform="matrix(0,1,-1,0,0,0)" />
    <ellipse
       style="fill:#000000;fill-rule:evenodd;stroke:#000000;stroke-width:0.97466683px;stroke-linecap:butt;stroke-linejoin:miter;stroke-opacity:1"
       id="path3358-7-9"
       cx="526.14398"
       cy="1017.7722"
       rx="18.334835"
       ry="10.362518" />
    <path
       style="fill:#ffffff;fill-opacity:1;stroke:#000000;stroke-width:1.8970592;stroke-miterlimit:4;stroke-dasharray:none;stroke-opacity:1"
       id="path4189-7-0"
       sodipodi:type="arc"
       sodipodi:cx="1033.4762"
       sodipodi:cy="-527.34515"
       sodipodi:rx="12.477895"
       sodipodi:ry="6.4092603"
       sodipodi:start="0"
       sodipodi:end="6.1709083"
       sodipodi:open="true"
       d="m 1045.9541,-527.34515 a 12.477895,6.4092603 0 0 1 -12.1277,6.40673 12.477895,6.4092603 0 0 1 -12.8084,-6.04712 12.477895,6.4092603 0 0 1 11.4087,-6.74616 12.477895,6.4092603 0 0 1 13.4488,5.66844"
       transform="matrix(0,1,-1,0,0,0)" />
    <path
       style="fill:#ffffff;fill-opacity:1;stroke:#000000;stroke-width:1.94648993;stroke-miterlimit:4;stroke-dasharray:none;stroke-opacity:1"
       id="path4189-0-1-0"
       sodipodi:type="arc"
       sodipodi:cx="1002.5933"
       sodipodi:cy="-526.21332"
       sodipodi:rx="13.184418"
       sodipodi:ry="6.3860292"
       sodipodi:start="0"
       sodipodi:end="6.1709083"
       sodipodi:open="true"
       d="m 1015.7777,-526.21332 a 13.184418,6.3860292 0 0 1 -12.8143,6.38352 13.184418,6.3860292 0 0 1 -13.53372,-6.0252 13.184418,6.3860292 0 0 1 12.05472,-6.72172 13.184418,6.3860292 0 0 1 14.2103,5.6479"
       transform="matrix(0,1,-1,0,0,0)" />
    <ellipse
       style="fill:#000000;fill-rule:evenodd;stroke:#000000;stroke-width:0.97466683px;stroke-linecap:butt;stroke-linejoin:miter;stroke-opacity:1"
       id="path3358-0-1"
       cx="569.25189"
       cy="976.52405"
       rx="18.334835"
       ry="10.362518" />
    <path
       style="fill:#ffffff;fill-opacity:1;stroke:#000000;stroke-width:1.8970592;stroke-miterlimit:4;stroke-dasharray:none;stroke-opacity:1"
       id="path4189-73-2"
       sodipodi:type="arc"
       sodipodi:cx="992.22809"
       sodipodi:cy="-570.453"
       sodipodi:rx="12.477895"
       sodipodi:ry="6.4092603"
       sodipodi:start="0"
       sodipodi:end="6.1709083"
       sodipodi:open="true"
       d="m 1004.706,-570.453 a 12.477895,6.4092603 0 0 1 -12.12771,6.40673 12.477895,6.4092603 0 0 1 -12.80844,-6.04712 12.477895,6.4092603 0 0 1 11.40874,-6.74616 12.477895,6.4092603 0 0 1 13.44881,5.66845"
       transform="matrix(0,1,-1,0,0,0)" />
    <path
       style="fill:#ffffff;fill-opacity:1;stroke:#000000;stroke-width:1.94648993;stroke-miterlimit:4;stroke-dasharray:none;stroke-opacity:1"
       id="path4189-0-8-1"
       sodipodi:type="arc"
       sodipodi:cx="961.34503"
       sodipodi:cy="-569.32123"
       sodipodi:rx="13.184418"
       sodipodi:ry="6.3860292"
       sodipodi:start="0"
       sodipodi:end="6.1709083"
       sodipodi:open="true"
       d="m 974.52945,-569.32123 a 13.184418,6.3860292 0 0 1 -12.81439,6.38352 13.184418,6.3860292 0 0 1 -13.53368,-6.0252 13.184418,6.3860292 0 0 1 12.05473,-6.72172 13.184418,6.3860292 0 0 1 14.21032,5.6479"
       transform="matrix(0,1,-1,0,0,0)" />
    <ellipse
       style="fill:#000000;fill-rule:evenodd;stroke:#000000;stroke-width:0.97466683px;stroke-linecap:butt;stroke-linejoin:miter;stroke-opacity:1"
       id="path3358-3-3"
       cx="481.25"
       cy="979.15369"
       rx="18.334835"
       ry="10.362518" />
    <path
       style="fill:#ffffff;fill-opacity:1;stroke:#000000;stroke-width:1.8970592;stroke-miterlimit:4;stroke-dasharray:none;stroke-opacity:1"
       id="path4189-1-3"
       sodipodi:type="arc"
       sodipodi:cx="994.85773"
       sodipodi:cy="-482.45114"
       sodipodi:rx="12.477895"
       sodipodi:ry="6.4092603"
       sodipodi:start="0"
       sodipodi:end="6.1709083"
       sodipodi:open="true"
       d="m 1007.3356,-482.45114 a 12.477895,6.4092603 0 0 1 -12.12767,6.40673 12.477895,6.4092603 0 0 1 -12.80844,-6.04711 12.477895,6.4092603 0 0 1 11.40874,-6.74617 12.477895,6.4092603 0 0 1 13.44887,5.66845"
       transform="matrix(0,1,-1,0,0,0)" />
    <path
       style="fill:#ffffff;fill-opacity:1;stroke:#000000;stroke-width:1.94648993;stroke-miterlimit:4;stroke-dasharray:none;stroke-opacity:1"
       id="path4189-0-5-4"
       sodipodi:type="arc"
       sodipodi:cx="963.97467"
       sodipodi:cy="-481.31934"
       sodipodi:rx="13.184418"
       sodipodi:ry="6.3860292"
       sodipodi:start="0"
       sodipodi:end="6.1709083"
       sodipodi:open="true"
       d="m 977.15909,-481.31934 a 13.184418,6.3860292 0 0 1 -12.81439,6.38352 13.184418,6.3860292 0 0 1 -13.53368,-6.0252 13.184418,6.3860292 0 0 1 12.05473,-6.72172 13.184418,6.3860292 0 0 1 14.21032,5.64791"
       transform="matrix(0,1,-1,0,0,0)" />
    <ellipse
       style="fill:#000000;fill-rule:evenodd;stroke:#000000;stroke-width:0.97466683px;stroke-linecap:butt;stroke-linejoin:miter;stroke-opacity:1"
       id="path3358-13-9"
       cx="377.86615"
       cy="982.3869"
       rx="18.334835"
       ry="10.362518" />
    <path
       style="fill:#ffffff;fill-opacity:1;stroke:#000000;stroke-width:1.8970592;stroke-miterlimit:4;stroke-dasharray:none;stroke-opacity:1"
       id="path4189-00-3"
       sodipodi:type="arc"
       sodipodi:cx="998.09088"
       sodipodi:cy="-379.06729"
       sodipodi:rx="12.477895"
       sodipodi:ry="6.4092603"
       sodipodi:start="0"
       sodipodi:end="6.1709083"
       sodipodi:open="true"
       d="m 1010.5688,-379.06729 a 12.477895,6.4092603 0 0 1 -12.12772,6.40673 12.477895,6.4092603 0 0 1 -12.80844,-6.04711 12.477895,6.4092603 0 0 1 11.40875,-6.74617 12.477895,6.4092603 0 0 1 13.44881,5.66845"
       transform="matrix(0,1,-1,0,0,0)" />
    <path
       style="fill:#ffffff;fill-opacity:1;stroke:#000000;stroke-width:1.94648993;stroke-miterlimit:4;stroke-dasharray:none;stroke-opacity:1"
       id="path4189-0-20-9"
       sodipodi:type="arc"
       sodipodi:cx="967.20789"
       sodipodi:cy="-377.93546"
       sodipodi:rx="13.184418"
       sodipodi:ry="6.3860292"
       sodipodi:start="0"
       sodipodi:end="6.1709083"
       sodipodi:open="true"
       d="m 980.3923,-377.93546 a 13.184418,6.3860292 0 0 1 -12.81439,6.38352 13.184418,6.3860292 0 0 1 -13.53367,-6.0252 13.184418,6.3860292 0 0 1 12.05473,-6.72172 13.184418,6.3860292 0 0 1 14.21032,5.64791"
       transform="matrix(0,1,-1,0,0,0)" />
  </g>
</svg>
